<svg id="Layer_1" data-name="Layer 1" xmlns="http://www.w3.org/2000/svg" viewBox="0 0 1000 1000"><defs><style>.cls-1{isolation:isolate;}.cls-2{fill:#171a1d;}.cls-3{fill:#111315;}.cls-4{fill:#1d2024;}</style></defs><g class="cls-1"><polygon class="cls-2" points="670.39 895.02 624.81 870.22 770.62 849.73 816.21 874.53 670.39 895.02"/><polygon class="cls-3" points="665.4 905.33 619.82 880.53 618.51 878.43 664.1 903.23 665.4 905.33"/><polygon class="cls-3" points="816.21 874.53 770.62 849.73 772.12 42.78 817.71 67.58 816.21 874.53"/><polygon class="cls-2" points="227.88 957.21 182.29 932.41 314.87 913.78 360.46 938.58 227.88 957.21"/><polygon class="cls-2" points="685.13 86.22 639.54 61.42 772.12 42.78 817.71 67.58 685.13 86.22"/><polygon class="cls-3" points="684.09 643.81 638.51 619.02 639.54 61.42 685.13 86.22 684.09 643.81"/><polygon class="cls-2" points="676.25 77.86 630.66 53.06 781.04 31.93 826.63 56.72 676.25 77.86"/><polygon class="cls-3" points="675.26 610.85 629.67 586.05 630.66 53.06 676.25 77.86 675.26 610.85"/><polygon class="cls-3" points="670.4 895.02 624.81 870.22 315.88 369.1 361.47 393.9 670.4 895.02"/><polygon class="cls-3" points="664.1 903.23 618.51 878.43 324.72 401.84 370.31 426.64 664.1 903.23"/><polygon class="cls-3" points="360.46 938.58 314.87 913.78 315.88 369.1 361.47 393.9 360.46 938.58"/><polygon class="cls-3" points="684.09 643.81 638.5 619.01 324.58 105.68 370.17 130.48 684.09 643.81"/><polygon class="cls-4" points="817.71 67.58 816.21 874.53 670.4 895.02 361.47 393.9 360.46 938.58 227.88 957.21 229.38 150.27 370.17 130.48 684.09 643.81 685.13 86.22 817.71 67.58"/><polygon class="cls-2" points="229.38 150.27 183.79 125.47 324.58 105.68 370.17 130.48 229.38 150.27"/><polygon class="cls-3" points="227.88 957.21 182.29 932.41 183.79 125.47 229.38 150.27 227.88 957.21"/><polygon class="cls-3" points="218.95 968.07 173.36 943.27 174.9 117.11 220.48 141.91 218.95 968.07"/><path class="cls-4" d="M676.25,77.86,826.63,56.72l-1.54,826.16L665.4,905.33l-1.3-2.1L370.3,426.64l-1,520.29L219,968.07l1.53-826.16,154.7-21.74,1.3,2.12L675.26,610.85Zm140,796.67,1.5-806.95L685.13,86.21l-1,557.6L370.17,130.48l-140.8,19.79-1.5,806.94,132.59-18.63,1-544.68L670.39,895l145.82-20.49"/><polygon class="cls-2" points="220.48 141.91 174.9 117.11 329.6 95.37 375.18 120.17 220.48 141.91"/></g></svg>